<svg xmlns="http://www.w3.org/2000/svg" xmlns:xlink="http://www.w3.org/1999/xlink" width="500" zoomAndPan="magnify" viewBox="0 0 375 374.999991" height="500" preserveAspectRatio="xMidYMid meet" version="1.0"><defs><clipPath id="id1"><path d="M 8.746094 8.746094 L 366.496094 8.746094 L 366.496094 366.496094 L 8.746094 366.496094 Z M 8.746094 8.746094 " clip-rule="nonzero"/></clipPath></defs><g clip-path="url(#id1)"><path fill="#bfbdbc" d="M 366.492188 187.621094 C 366.492188 286.410156 286.410156 366.492188 187.621094 366.492188 C 88.835938 366.492188 8.75 286.410156 8.75 187.621094 C 8.75 88.832031 88.835938 8.75 187.621094 8.75 C 286.410156 8.75 366.492188 88.832031 366.492188 187.621094 " fill-opacity="1" fill-rule="nonzero"/></g><path fill="#ffffff" d="M 251.160156 131.078125 C 251.160156 166.292969 222.609375 194.84375 187.390625 194.84375 C 152.175781 194.84375 123.625 166.292969 123.625 131.078125 C 123.625 95.855469 152.175781 67.308594 187.390625 67.308594 C 222.609375 67.308594 251.160156 95.855469 251.160156 131.078125 " fill-opacity="1" fill-rule="nonzero"/><path fill="#ffffff" d="M 187.390625 358 C 232.515625 358 273.730469 341.285156 305.199219 313.714844 C 295.429688 249.929688 266.667969 205.664062 187.390625 205.664062 C 110.34375 205.664062 80.519531 250.117188 70.042969 314.125 C 101.453125 341.449219 142.488281 358 187.390625 358 " fill-opacity="1" fill-rule="nonzero"/></svg>