<svg xmlns="http://www.w3.org/2000/svg" xmlns:xlink="http://www.w3.org/1999/xlink" width="500" zoomAndPan="magnify" viewBox="0 0 375 225" height="300" preserveAspectRatio="xMidYMid meet" version="1.0"><defs><filter x="0%" y="0%" width="100%" height="100%" id="id1"><feColorMatrix values="0 0 0 0 1 0 0 0 0 1 0 0 0 0 1 0 0 0 1 0" color-interpolation-filters="sRGB"/></filter><g/><mask id="id2"><g filter="url(#id1)"><rect x="-37.5" width="450" fill="#000000" y="-22.5" height="270" fill-opacity="0.6667"/></g></mask><clipPath id="id3"><path d="M 0.515625 0.59375 L 330.398438 0.59375 L 330.398438 152.089844 L 0.515625 152.089844 Z M 0.515625 0.59375 " clip-rule="nonzero"/></clipPath><clipPath id="id4"><rect x="0" width="332" y="0" height="153"/></clipPath></defs><g mask="url(#id2)"><g transform="matrix(1, 0, 0, 1, 22, 36)"><g clip-path="url(#id4)"><g clip-path="url(#id3)"><path fill="#c2c2ff" d="M 316.507812 25.089844 C 325.074219 31.234375 331.316406 39.253906 330.285156 49.390625 C 328.886719 63.183594 314.621094 71.328125 313.859375 85.664062 C 313.566406 91.175781 315.234375 96.589844 315.742188 102.089844 C 317.378906 119.722656 306.296875 137.148438 290.6875 145.558594 C 263.753906 160.070312 235.730469 146.636719 208.394531 141.34375 C 186.238281 137.050781 163.4375 138.007812 141.21875 141.320312 C 119.269531 144.59375 97.695312 150.484375 75.304688 150.222656 C 61.617188 150.0625 47.601562 148.375 34.933594 142.972656 C 25.28125 138.351562 16.65625 131.488281 10.25 122.910156 C 7.109375 118.671875 4.386719 114.0625 2.511719 109.125 C 0.742188 104.152344 0.445312 98.761719 0.527344 93.527344 C 0.699219 86.25 2.148438 79.070312 4.570312 72.214844 C 11.117188 53.6875 20.28125 41.160156 37.867188 31.839844 C 53.726562 23.433594 71.5 19.289062 88.957031 15.65625 C 154.199219 2.074219 222.921875 -8.015625 286.675781 11.371094 C 295.132812 13.941406 307.195312 18.40625 316.507812 25.089844 " fill-opacity="1" fill-rule="nonzero"/></g></g></g></g><g fill="#68718d" fill-opacity="1"><g transform="translate(82.106151, 135.227264)"><g><path d="M 44.8125 -68.828125 L 44.8125 -55.0625 L 20.6875 -55.0625 L 20.6875 -41.390625 L 42.96875 -41.390625 L 42.96875 -27.625 L 20.6875 -27.625 L 20.6875 0 L 5 0 L 5 -68.828125 Z M 44.8125 -68.828125 "/></g></g></g><g fill="#68718d" fill-opacity="1"><g transform="translate(129.414994, 135.227264)"><g><path d="M 6.421875 -66.65625 C 8.148438 -68.382812 10.207031 -69.25 12.59375 -69.25 C 14.988281 -69.25 17.046875 -68.382812 18.765625 -66.65625 C 20.492188 -64.9375 21.359375 -62.878906 21.359375 -60.484375 C 21.359375 -58.097656 20.492188 -56.039062 18.765625 -54.3125 C 17.046875 -52.59375 14.988281 -51.734375 12.59375 -51.734375 C 10.207031 -51.734375 8.148438 -52.59375 6.421875 -54.3125 C 4.703125 -56.039062 3.84375 -58.097656 3.84375 -60.484375 C 3.84375 -62.878906 4.703125 -64.9375 6.421875 -66.65625 Z M 5 -42.796875 L 5 0 L 19.78125 0 L 19.78125 -42.796875 Z M 5 -42.796875 "/></g></g></g><g fill="#68718d" fill-opacity="1"><g transform="translate(154.612999, 135.227264)"><g><path d="M 7.515625 -42.796875 L 7.515625 -58.734375 L 22.28125 -58.734375 L 22.28125 -42.796875 L 31.28125 -42.796875 L 31.28125 -31.546875 L 22.28125 -31.546875 L 22.28125 -17.9375 C 22.28125 -13.988281 23.390625 -12.015625 25.609375 -12.015625 C 26.171875 -12.015625 26.753906 -12.125 27.359375 -12.34375 C 27.972656 -12.570312 28.445312 -12.796875 28.78125 -13.015625 L 29.28125 -13.34375 L 32.953125 -1.421875 C 29.785156 0.359375 26.171875 1.25 22.109375 1.25 C 19.328125 1.25 16.9375 0.765625 14.9375 -0.203125 C 12.9375 -1.179688 11.421875 -2.488281 10.390625 -4.125 C 9.359375 -5.769531 8.617188 -7.492188 8.171875 -9.296875 C 7.734375 -11.109375 7.515625 -13.046875 7.515625 -15.109375 L 7.515625 -31.546875 L 1.328125 -31.546875 L 1.328125 -42.796875 Z M 7.515625 -42.796875 "/></g></g></g><g fill="#68718d" fill-opacity="1"><g transform="translate(187.570653, 135.227264)"><g><path d="M 20.6875 -68.828125 L 20.6875 -13.765625 L 44.390625 -13.765625 L 44.390625 0 L 5 0 L 5 -68.828125 Z M 20.6875 -68.828125 "/></g></g></g><g fill="#68718d" fill-opacity="1"><g transform="translate(234.712618, 135.227264)"><g><path d="M 6.421875 -66.65625 C 8.148438 -68.382812 10.207031 -69.25 12.59375 -69.25 C 14.988281 -69.25 17.046875 -68.382812 18.765625 -66.65625 C 20.492188 -64.9375 21.359375 -62.878906 21.359375 -60.484375 C 21.359375 -58.097656 20.492188 -56.039062 18.765625 -54.3125 C 17.046875 -52.59375 14.988281 -51.734375 12.59375 -51.734375 C 10.207031 -51.734375 8.148438 -52.59375 6.421875 -54.3125 C 4.703125 -56.039062 3.84375 -58.097656 3.84375 -60.484375 C 3.84375 -62.878906 4.703125 -64.9375 6.421875 -66.65625 Z M 5 -42.796875 L 5 0 L 19.78125 0 L 19.78125 -42.796875 Z M 5 -42.796875 "/></g></g></g><g fill="#68718d" fill-opacity="1"><g transform="translate(259.910623, 135.227264)"><g><path d="M 7.515625 -42.796875 L 7.515625 -58.734375 L 22.28125 -58.734375 L 22.28125 -42.796875 L 31.28125 -42.796875 L 31.28125 -31.546875 L 22.28125 -31.546875 L 22.28125 -17.9375 C 22.28125 -13.988281 23.390625 -12.015625 25.609375 -12.015625 C 26.171875 -12.015625 26.753906 -12.125 27.359375 -12.34375 C 27.972656 -12.570312 28.445312 -12.796875 28.78125 -13.015625 L 29.28125 -13.34375 L 32.953125 -1.421875 C 29.785156 0.359375 26.171875 1.25 22.109375 1.25 C 19.328125 1.25 16.9375 0.765625 14.9375 -0.203125 C 12.9375 -1.179688 11.421875 -2.488281 10.390625 -4.125 C 9.359375 -5.769531 8.617188 -7.492188 8.171875 -9.296875 C 7.734375 -11.109375 7.515625 -13.046875 7.515625 -15.109375 L 7.515625 -31.546875 L 1.328125 -31.546875 L 1.328125 -42.796875 Z M 7.515625 -42.796875 "/></g></g></g></svg>