<svg xmlns="http://www.w3.org/2000/svg" xmlns:xlink="http://www.w3.org/1999/xlink" width="500" zoomAndPan="magnify" viewBox="0 0 375 374.999991" height="500" preserveAspectRatio="xMidYMid meet" version="1.0"><defs><clipPath id="9eff3aea5c"><path d="M 105.238281 105.238281 L 269.488281 105.238281 L 269.488281 269.488281 L 105.238281 269.488281 Z M 105.238281 105.238281 " clip-rule="nonzero"/></clipPath><clipPath id="9932ad4777"><path d="M 50.691406 50.691406 L 324.441406 50.691406 L 324.441406 324.441406 L 50.691406 324.441406 Z M 50.691406 50.691406 " clip-rule="nonzero"/></clipPath><clipPath id="19eaa4e2e6"><path d="M 114.882812 114.882812 L 260.382812 114.882812 L 260.382812 260.382812 L 114.882812 260.382812 Z M 114.882812 114.882812 " clip-rule="nonzero"/></clipPath></defs><g clip-path="url(#9eff3aea5c)"><path fill="#ffffff" d="M 269.488281 187.363281 C 269.488281 188.707031 269.453125 190.050781 269.390625 191.390625 C 269.324219 192.734375 269.222656 194.074219 269.09375 195.414062 C 268.960938 196.75 268.796875 198.082031 268.597656 199.414062 C 268.402344 200.742188 268.171875 202.066406 267.910156 203.382812 C 267.648438 204.703125 267.351562 206.015625 267.027344 207.316406 C 266.699219 208.621094 266.339844 209.917969 265.953125 211.203125 C 265.5625 212.488281 265.140625 213.765625 264.6875 215.03125 C 264.234375 216.296875 263.75 217.550781 263.238281 218.789062 C 262.722656 220.03125 262.175781 221.261719 261.601562 222.476562 C 261.027344 223.691406 260.425781 224.890625 259.789062 226.078125 C 259.15625 227.261719 258.496094 228.429688 257.804688 229.582031 C 257.113281 230.738281 256.394531 231.871094 255.648438 232.988281 C 254.902344 234.105469 254.125 235.207031 253.328125 236.285156 C 252.527344 237.363281 251.699219 238.421875 250.847656 239.460938 C 249.992188 240.5 249.117188 241.519531 248.214844 242.515625 C 247.3125 243.511719 246.382812 244.484375 245.433594 245.433594 C 244.484375 246.382812 243.511719 247.3125 242.515625 248.214844 C 241.519531 249.117188 240.5 249.992188 239.460938 250.847656 C 238.421875 251.699219 237.363281 252.527344 236.285156 253.328125 C 235.207031 254.125 234.105469 254.902344 232.988281 255.648438 C 231.871094 256.394531 230.738281 257.113281 229.582031 257.804688 C 228.429688 258.496094 227.261719 259.15625 226.078125 259.789062 C 224.890625 260.425781 223.691406 261.027344 222.476562 261.601562 C 221.261719 262.175781 220.03125 262.722656 218.789062 263.238281 C 217.550781 263.75 216.296875 264.234375 215.03125 264.6875 C 213.765625 265.140625 212.488281 265.5625 211.203125 265.953125 C 209.917969 266.339844 208.621094 266.699219 207.316406 267.027344 C 206.015625 267.351562 204.703125 267.648438 203.382812 267.910156 C 202.066406 268.171875 200.742188 268.402344 199.414062 268.597656 C 198.082031 268.796875 196.75 268.960938 195.414062 269.09375 C 194.074219 269.222656 192.734375 269.324219 191.390625 269.390625 C 190.050781 269.453125 188.707031 269.488281 187.363281 269.488281 C 186.019531 269.488281 184.675781 269.453125 183.332031 269.390625 C 181.992188 269.324219 180.652344 269.222656 179.3125 269.09375 C 177.976562 268.960938 176.640625 268.796875 175.3125 268.597656 C 173.984375 268.402344 172.660156 268.171875 171.339844 267.910156 C 170.023438 267.648438 168.710938 267.351562 167.40625 267.027344 C 166.105469 266.699219 164.808594 266.339844 163.523438 265.953125 C 162.238281 265.5625 160.960938 265.140625 159.695312 264.6875 C 158.429688 264.234375 157.175781 263.75 155.933594 263.238281 C 154.691406 262.722656 153.464844 262.175781 152.25 261.601562 C 151.035156 261.027344 149.835938 260.425781 148.648438 259.789062 C 147.464844 259.15625 146.296875 258.496094 145.140625 257.804688 C 143.988281 257.113281 142.855469 256.394531 141.738281 255.648438 C 140.621094 254.902344 139.519531 254.125 138.441406 253.328125 C 137.363281 252.527344 136.300781 251.699219 135.261719 250.847656 C 134.222656 249.992188 133.207031 249.117188 132.210938 248.214844 C 131.214844 247.3125 130.242188 246.382812 129.292969 245.433594 C 128.339844 244.484375 127.414062 243.511719 126.511719 242.515625 C 125.609375 241.519531 124.730469 240.5 123.878906 239.460938 C 123.027344 238.421875 122.199219 237.363281 121.398438 236.285156 C 120.597656 235.207031 119.824219 234.105469 119.078125 232.988281 C 118.332031 231.871094 117.613281 230.738281 116.921875 229.582031 C 116.230469 228.429688 115.570312 227.261719 114.933594 226.078125 C 114.300781 224.890625 113.699219 223.691406 113.121094 222.476562 C 112.546875 221.261719 112.003906 220.03125 111.488281 218.789062 C 110.976562 217.550781 110.492188 216.296875 110.039062 215.03125 C 109.585938 213.765625 109.164062 212.488281 108.773438 211.203125 C 108.382812 209.917969 108.027344 208.621094 107.699219 207.316406 C 107.371094 206.015625 107.078125 204.703125 106.816406 203.382812 C 106.554688 202.066406 106.324219 200.742188 106.125 199.414062 C 105.929688 198.082031 105.765625 196.75 105.632812 195.414062 C 105.5 194.074219 105.402344 192.734375 105.335938 191.390625 C 105.269531 190.050781 105.238281 188.707031 105.238281 187.363281 C 105.238281 186.019531 105.269531 184.675781 105.335938 183.332031 C 105.402344 181.992188 105.5 180.652344 105.632812 179.3125 C 105.765625 177.976562 105.929688 176.640625 106.125 175.3125 C 106.324219 173.984375 106.554688 172.660156 106.816406 171.339844 C 107.078125 170.023438 107.371094 168.710938 107.699219 167.40625 C 108.027344 166.105469 108.382812 164.808594 108.773438 163.523438 C 109.164062 162.238281 109.585938 160.960938 110.039062 159.695312 C 110.492188 158.429688 110.976562 157.175781 111.488281 155.933594 C 112.003906 154.691406 112.546875 153.464844 113.121094 152.25 C 113.699219 151.035156 114.300781 149.835938 114.933594 148.648438 C 115.570312 147.464844 116.230469 146.296875 116.921875 145.140625 C 117.613281 143.988281 118.332031 142.855469 119.078125 141.738281 C 119.824219 140.621094 120.597656 139.519531 121.398438 138.441406 C 122.199219 137.363281 123.027344 136.300781 123.878906 135.261719 C 124.730469 134.222656 125.609375 133.207031 126.511719 132.210938 C 127.414062 131.214844 128.339844 130.242188 129.292969 129.292969 C 130.242188 128.339844 131.214844 127.414062 132.210938 126.511719 C 133.207031 125.609375 134.222656 124.730469 135.261719 123.878906 C 136.300781 123.027344 137.363281 122.199219 138.441406 121.398438 C 139.519531 120.597656 140.621094 119.824219 141.738281 119.078125 C 142.855469 118.332031 143.988281 117.613281 145.140625 116.921875 C 146.296875 116.230469 147.464844 115.570312 148.648438 114.933594 C 149.835938 114.300781 151.035156 113.699219 152.25 113.121094 C 153.464844 112.546875 154.691406 112.003906 155.933594 111.488281 C 157.175781 110.976562 158.429688 110.492188 159.695312 110.039062 C 160.960938 109.585938 162.238281 109.164062 163.523438 108.773438 C 164.808594 108.382812 166.105469 108.027344 167.40625 107.699219 C 168.710938 107.371094 170.023438 107.078125 171.339844 106.816406 C 172.660156 106.554688 173.984375 106.324219 175.3125 106.125 C 176.640625 105.929688 177.976562 105.765625 179.3125 105.632812 C 180.652344 105.5 181.992188 105.402344 183.332031 105.335938 C 184.675781 105.269531 186.019531 105.238281 187.363281 105.238281 C 188.707031 105.238281 190.050781 105.269531 191.390625 105.335938 C 192.734375 105.402344 194.074219 105.5 195.414062 105.632812 C 196.75 105.765625 198.082031 105.929688 199.414062 106.125 C 200.742188 106.324219 202.066406 106.554688 203.382812 106.816406 C 204.703125 107.078125 206.015625 107.371094 207.316406 107.699219 C 208.621094 108.027344 209.917969 108.382812 211.203125 108.773438 C 212.488281 109.164062 213.765625 109.585938 215.03125 110.039062 C 216.296875 110.492188 217.550781 110.976562 218.789062 111.488281 C 220.03125 112.003906 221.261719 112.546875 222.476562 113.121094 C 223.691406 113.699219 224.890625 114.300781 226.078125 114.933594 C 227.261719 115.570312 228.429688 116.230469 229.582031 116.921875 C 230.738281 117.613281 231.871094 118.332031 232.988281 119.078125 C 234.105469 119.824219 235.207031 120.597656 236.285156 121.398438 C 237.363281 122.199219 238.421875 123.027344 239.460938 123.878906 C 240.5 124.730469 241.519531 125.609375 242.515625 126.511719 C 243.511719 127.414062 244.484375 128.339844 245.433594 129.292969 C 246.382812 130.242188 247.3125 131.214844 248.214844 132.210938 C 249.117188 133.207031 249.992188 134.222656 250.847656 135.261719 C 251.699219 136.300781 252.527344 137.363281 253.328125 138.441406 C 254.125 139.519531 254.902344 140.621094 255.648438 141.738281 C 256.394531 142.855469 257.113281 143.988281 257.804688 145.140625 C 258.496094 146.296875 259.15625 147.464844 259.789062 148.648438 C 260.425781 149.835938 261.027344 151.035156 261.601562 152.25 C 262.175781 153.464844 262.722656 154.691406 263.238281 155.933594 C 263.75 157.175781 264.234375 158.429688 264.6875 159.695312 C 265.140625 160.960938 265.5625 162.238281 265.953125 163.523438 C 266.339844 164.808594 266.699219 166.105469 267.027344 167.40625 C 267.351562 168.710938 267.648438 170.023438 267.910156 171.339844 C 268.171875 172.660156 268.402344 173.984375 268.597656 175.3125 C 268.796875 176.640625 268.960938 177.976562 269.09375 179.3125 C 269.222656 180.652344 269.324219 181.992188 269.390625 183.332031 C 269.453125 184.675781 269.488281 186.019531 269.488281 187.363281 Z M 269.488281 187.363281 " fill-opacity="1" fill-rule="nonzero"/></g><g clip-path="url(#9932ad4777)"><path fill="#b2c3ed" d="M 187.566406 324.441406 C 111.949219 324.441406 50.691406 262.765625 50.691406 187.566406 C 50.691406 112.371094 111.949219 50.691406 187.566406 50.691406 C 263.1875 50.691406 324.441406 111.949219 324.441406 187.566406 C 324.441406 263.1875 262.765625 324.441406 187.566406 324.441406 Z M 187.566406 59.140625 C 116.597656 59.140625 59.140625 116.597656 59.140625 187.566406 C 59.140625 258.539062 116.597656 315.996094 187.566406 315.996094 C 258.539062 315.996094 315.996094 258.539062 315.996094 187.566406 C 315.996094 116.597656 258.117188 59.140625 187.566406 59.140625 Z M 187.566406 59.140625 " fill-opacity="1" fill-rule="nonzero"/></g><g clip-path="url(#19eaa4e2e6)"><path fill="#b2c3ed" d="M 187.585938 114.882812 C 187.621094 114.882812 187.660156 114.882812 187.699219 114.886719 C 191.3125 114.902344 194.597656 116.386719 196.980469 118.769531 C 199.371094 121.160156 200.851562 124.46875 200.855469 128.113281 L 200.863281 128.113281 L 200.863281 174.40625 L 247.15625 174.40625 C 250.796875 174.40625 254.101562 175.894531 256.5 178.289062 C 258.882812 180.675781 260.371094 183.964844 260.382812 187.585938 C 260.382812 187.621094 260.382812 187.660156 260.382812 187.699219 C 260.367188 191.3125 258.882812 194.59375 256.5 196.980469 C 254.109375 199.371094 250.800781 200.851562 247.15625 200.851562 L 247.15625 200.863281 L 200.863281 200.863281 L 200.863281 247.15625 C 200.863281 250.796875 199.375 254.105469 196.980469 256.5 C 194.59375 258.882812 191.304688 260.371094 187.683594 260.382812 C 187.644531 260.382812 187.609375 260.382812 187.570312 260.382812 C 183.957031 260.367188 180.671875 258.882812 178.289062 256.5 C 175.898438 254.109375 174.417969 250.800781 174.417969 247.15625 L 174.40625 247.15625 L 174.40625 200.863281 L 128.113281 200.863281 C 124.472656 200.863281 121.164062 199.375 118.769531 196.980469 C 116.382812 194.59375 114.898438 191.304688 114.886719 187.683594 C 114.882812 187.644531 114.882812 187.609375 114.886719 187.570312 C 114.902344 183.957031 116.386719 180.671875 118.769531 178.289062 C 121.160156 175.898438 124.46875 174.417969 128.113281 174.417969 L 128.113281 174.40625 L 174.40625 174.40625 L 174.40625 128.113281 C 174.40625 124.472656 175.894531 121.164062 178.289062 118.769531 C 180.675781 116.382812 183.964844 114.898438 187.585938 114.882812 " fill-opacity="1" fill-rule="nonzero"/></g></svg>