<svg xmlns="http://www.w3.org/2000/svg" xmlns:xlink="http://www.w3.org/1999/xlink" width="500" zoomAndPan="magnify" viewBox="0 0 375 530.249967" height="707" preserveAspectRatio="xMidYMid meet" version="1.0"><defs><clipPath id="id1"><path d="M 71.125 394.386719 L 111 394.386719 L 111 514.75 L 71.125 514.75 Z M 71.125 394.386719 " clip-rule="nonzero"/></clipPath><clipPath id="id2"><path d="M 267.289062 396 L 320 396 L 320 514.75 L 267.289062 514.75 Z M 267.289062 396 " clip-rule="nonzero"/></clipPath><clipPath id="id3"><path d="M 112 369.101562 L 273 369.101562 L 273 514.75 L 112 514.75 Z M 112 369.101562 " clip-rule="nonzero"/></clipPath><clipPath id="id4"><path d="M 236 369.101562 L 320 369.101562 L 320 514.75 L 236 514.75 Z M 236 369.101562 " clip-rule="nonzero"/></clipPath><clipPath id="id5"><path d="M 69 369.101562 L 152 369.101562 L 152 514.75 L 69 514.75 Z M 69 369.101562 " clip-rule="nonzero"/></clipPath></defs><g clip-path="url(#id1)"><path fill="#db7d50" d="M 99.375 514.75 L 110.4375 399.734375 L 78.109375 394.667969 L 71.875 514.75 L 99.375 514.75 " fill-opacity="1" fill-rule="nonzero"/></g><g clip-path="url(#id2)"><path fill="#db7d50" d="M 319.324219 514.75 L 312.164062 396.609375 L 267.710938 396.609375 L 290.03125 514.75 L 319.324219 514.75 " fill-opacity="1" fill-rule="nonzero"/></g><path fill="#552019" d="M 290.574219 391.132812 L 97.097656 374.964844 L 114.832031 163.195312 L 308.308594 179.367188 L 290.574219 391.132812 " fill-opacity="1" fill-rule="nonzero"/><g clip-path="url(#id3)"><path fill="#fab7bf" d="M 254.710938 514.75 C 259.601562 461.429688 272.539062 387.785156 272.539062 387.785156 C 272.539062 377.617188 266.277344 369.398438 258.539062 369.398438 L 126.871094 369.398438 C 119.136719 369.398438 112.871094 377.617188 112.871094 387.785156 C 112.871094 387.785156 130.695312 461.035156 137.578125 514.75 L 254.710938 514.75 " fill-opacity="1" fill-rule="nonzero"/></g><g clip-path="url(#id4)"><path fill="#fab7bf" d="M 288.59375 514.75 L 319.867188 514.75 C 319.296875 481.683594 319.871094 430.152344 318.199219 414.449219 C 314.820312 382.691406 304.359375 369.398438 280.121094 369.398438 C 261.546875 369.398438 236.648438 369.398438 236.648438 369.398438 L 236.648438 424.351562 L 269.082031 424.351562 L 288.59375 514.75 " fill-opacity="1" fill-rule="nonzero"/></g><g clip-path="url(#id5)"><path fill="#fab7bf" d="M 69.972656 514.75 L 100.386719 514.75 L 119.257812 424.351562 L 151.683594 424.351562 L 151.683594 369.398438 C 151.683594 369.398438 126.777344 369.398438 108.226562 369.398438 C 83.96875 369.398438 73.515625 382.691406 70.132812 414.449219 C 68.46875 430.152344 70.140625 481.683594 69.972656 514.75 " fill-opacity="1" fill-rule="nonzero"/></g><path fill="#db7d50" d="M 221.902344 371.320312 C 221.914062 371.171875 221.925781 371.003906 221.9375 370.835938 L 221.886719 370.859375 L 220.425781 324.613281 L 164.960938 326.339844 L 166.390625 372.546875 L 166.355469 372.546875 C 166.359375 372.695312 166.394531 372.839844 166.40625 372.992188 L 166.417969 373.226562 L 166.4375 373.226562 C 167.738281 387.597656 180.152344 398.648438 194.953125 398.207031 C 209.777344 397.734375 221.484375 385.933594 221.894531 371.480469 L 221.914062 371.480469 L 221.902344 371.320312 " fill-opacity="1" fill-rule="nonzero"/><path fill="#db7d50" d="M 317.660156 213.046875 C 319.289062 266.921875 248.933594 334.445312 195.113281 336.148438 C 155.777344 337.394531 69.710938 274.5 68.070312 220.632812 L 65.355469 131.261719 C 63.710938 77.398438 106.101562 32.390625 160.023438 30.746094 L 214.300781 29.082031 C 268.234375 27.4375 313.285156 69.8125 314.933594 123.6875 L 317.660156 213.046875 " fill-opacity="1" fill-rule="nonzero"/><path fill="#552019" d="M 224.0625 269.902344 C 221.273438 268.449219 210.023438 278.390625 191.332031 279.265625 C 172.613281 279.523438 160.785156 270.292969 158.078125 271.894531 C 154.570312 274.003906 163.855469 301.90625 192.039062 302.714844 C 220.132812 300.164062 227.695312 271.769531 224.0625 269.902344 " fill-opacity="1" fill-rule="nonzero"/><path fill="#f46a5f" d="M 208.949219 297.050781 C 204.253906 294.421875 198.558594 292.621094 191.722656 292.386719 C 184.917969 293.015625 179.347656 295.175781 174.8125 298.082031 C 179.519531 300.703125 185.21875 302.511719 192.039062 302.714844 C 198.839844 302.085938 204.410156 299.945312 208.949219 297.050781 " fill-opacity="1" fill-rule="nonzero"/><path fill="#ffffff" d="M 161.074219 272.199219 C 164.085938 280.148438 176.746094 289.195312 191.617188 288.726562 C 206.492188 288.316406 218.589844 278.488281 221.097656 270.34375 C 216.089844 272.3125 206.023438 278.578125 191.332031 279.265625 C 176.617188 279.460938 166.191406 273.824219 161.074219 272.199219 " fill-opacity="1" fill-rule="nonzero"/><path fill="#552019" d="M 156.179688 190.425781 C 144.703125 186.222656 130.707031 183.410156 116.617188 192.441406 C 111.273438 196.183594 110.789062 197.109375 109.894531 196.273438 C 107.964844 194.558594 109.636719 192.996094 114.390625 189.4375 C 120.785156 184.664062 129.074219 180.9375 136.707031 180.039062 C 143.292969 179.25 149.699219 178.992188 157.726562 182.964844 C 161.074219 184.613281 163.589844 186.121094 162.222656 189.226562 C 161.535156 190.777344 158.910156 191.4375 156.179688 190.425781 " fill-opacity="1" fill-rule="nonzero"/><path fill="#552019" d="M 149.765625 209.335938 C 149.933594 215.085938 145.414062 219.902344 139.660156 220.097656 C 133.910156 220.25 129.09375 215.746094 128.925781 209.96875 C 128.757812 204.210938 133.265625 199.390625 139.015625 199.199219 C 144.777344 199.039062 149.582031 203.578125 149.765625 209.335938 " fill-opacity="1" fill-rule="nonzero"/><path fill="#ffffff" d="M 144.949219 205.636719 C 145.019531 208.035156 143.160156 210 140.796875 210.074219 C 138.429688 210.132812 136.457031 208.285156 136.382812 205.914062 C 136.316406 203.535156 138.167969 201.570312 140.53125 201.496094 C 142.898438 201.433594 144.875 203.277344 144.949219 205.636719 " fill-opacity="1" fill-rule="nonzero"/><path fill="#552019" d="M 222.835938 188.40625 C 234.039062 183.511719 247.835938 179.84375 262.449219 188.015625 C 268.003906 191.425781 268.546875 192.324219 269.398438 191.453125 C 271.226562 189.597656 269.449219 188.125 264.503906 184.851562 C 257.828125 180.496094 249.320312 177.273438 241.628906 176.84375 C 235.023438 176.464844 228.609375 176.578125 220.839844 181.042969 C 217.597656 182.910156 215.175781 184.558594 216.726562 187.546875 C 217.519531 189.070312 220.171875 189.59375 222.835938 188.40625 " fill-opacity="1" fill-rule="nonzero"/><path fill="#552019" d="M 230.402344 206.898438 C 230.582031 212.65625 235.382812 217.148438 241.136719 216.988281 C 246.886719 216.824219 251.417969 212 251.234375 206.261719 C 251.050781 200.507812 246.246094 195.957031 240.515625 196.125 C 234.746094 196.324219 230.238281 201.117188 230.402344 206.898438 " fill-opacity="1" fill-rule="nonzero"/><path fill="#ffffff" d="M 234.964844 202.90625 C 235.046875 205.257812 237.015625 207.148438 239.398438 207.074219 C 241.757812 207 243.609375 205.011719 243.535156 202.625 C 243.460938 200.285156 241.496094 198.417969 239.136719 198.496094 C 236.761719 198.570312 234.90625 200.542969 234.964844 202.90625 " fill-opacity="1" fill-rule="nonzero"/><path fill="#b26540" d="M 190.496094 251.96875 C 184.632812 252.15625 179.683594 247.933594 178.746094 242.273438 C 178.703125 242.796875 178.628906 243.316406 178.644531 243.847656 C 178.84375 250.257812 184.191406 255.296875 190.597656 255.089844 C 197.007812 254.886719 202.027344 249.542969 201.832031 243.132812 C 201.820312 242.632812 201.71875 242.089844 201.632812 241.578125 C 201.035156 247.277344 196.375 251.769531 190.496094 251.96875 " fill-opacity="1" fill-rule="nonzero"/><path fill="#552019" d="M 78.445312 89.070312 C 78.445312 89.070312 167.492188 174.398438 312.164062 161.664062 C 312.164062 161.664062 313.816406 14.46875 196.214844 18.058594 C 106.476562 20.753906 79.164062 75.660156 78.445312 89.070312 " fill-opacity="1" fill-rule="nonzero"/><path fill="#552019" d="M 227.5625 386.390625 C 227.5625 386.390625 312.945312 251.789062 267.582031 176.554688 C 222.214844 101.296875 251.613281 30.582031 251.613281 30.582031 C 251.613281 30.582031 328.902344 64.257812 332.746094 190.4375 C 334.121094 235.804688 334.277344 345.707031 227.5625 386.390625 " fill-opacity="1" fill-rule="nonzero"/><path fill="#552019" d="M 161.671875 388.410156 C 161.671875 388.410156 68.261719 259.207031 108.949219 181.363281 C 149.660156 103.519531 117.699219 39.410156 117.699219 39.410156 C 117.699219 39.410156 40.910156 73.007812 44.773438 199.1875 C 46.148438 244.566406 52.683594 354.25 161.671875 388.410156 " fill-opacity="1" fill-rule="nonzero"/><path fill="#df928a" d="M 227.101562 370.246094 L 227.101562 368.445312 L 221.746094 368.480469 L 221.746094 368.695312 L 221.75 368.84375 L 221.734375 368.84375 C 220.96875 383.265625 208.964844 394.800781 194.132812 394.894531 C 179.410156 394.984375 167.34375 383.765625 166.265625 369.457031 L 166.222656 369.5 L 166.222656 369.238281 L 166.210938 369.238281 L 166.210938 368.988281 L 166.203125 368.824219 L 160.859375 368.859375 L 160.871094 370.660156 L 160.824219 370.660156 C 160.832031 370.855469 160.863281 371.023438 160.882812 371.199219 L 160.882812 371.464844 L 160.871094 371.789062 L 160.933594 371.753906 C 162.222656 388.800781 176.609375 402.207031 194.171875 402.101562 C 211.882812 401.988281 226.183594 388.21875 227.089844 371.007812 L 227.117188 371.007812 L 227.101562 370.816406 C 227.117188 370.65625 227.144531 370.441406 227.164062 370.242188 L 227.101562 370.246094 " fill-opacity="1" fill-rule="nonzero"/></svg>